<svg width="500" height="503" viewBox="0 0 500 503" fill="none" xmlns="http://www.w3.org/2000/svg">
<path d="M249.816 -6.10352e-05C111.835 -6.10352e-05 0 112.596 0 251.47C0 390.343 111.845 502.919 249.816 502.919C387.788 502.919 499.633 390.343 499.633 251.47C499.633 112.596 387.798 -6.10352e-05 249.816 -6.10352e-05ZM252.156 471.437C131.455 472.731 32.5625 375.294 31.2773 253.804C29.992 132.334 126.776 32.7955 247.477 31.5019C368.178 30.188 467.07 127.625 468.356 249.115C469.641 370.605 372.857 470.123 252.156 471.437Z" fill="url(#paint0_linear_46_518)"/>
<path d="M184.892 196.652C218.559 142.815 278.131 107.028 346.008 107.028C365.768 107.028 384.826 110.06 402.749 115.689C426.094 142.299 442.681 175.054 449.83 211.236H324.55C310.282 184.403 282.178 166.141 249.816 166.141C223.74 166.141 200.435 178.006 184.892 196.642V196.652Z" fill="url(#paint1_linear_46_518)"/>
<path d="M451.688 280.788C437.561 380.246 352.565 456.732 249.817 456.732C245.971 456.732 242.166 456.611 238.38 456.409C131.074 450.446 45.897 360.963 45.897 251.479C45.897 141.996 137.178 46.2065 249.817 46.2065C310.714 46.2065 365.387 73.0898 402.749 115.699C384.816 110.069 365.768 107.037 346.008 107.037C278.132 107.037 218.549 142.825 184.893 196.662C176.097 207.213 169.791 219.917 166.879 233.884C165.694 239.584 165.072 245.456 165.072 251.479C165.072 298.596 203.006 336.788 249.827 336.788C286.406 336.788 317.562 313.473 329.431 280.798H451.698L451.688 280.788Z" fill="url(#paint2_linear_46_518)"/>
<defs>
<linearGradient id="paint0_linear_46_518" x1="288.926" y1="695.862" x2="209.7" y2="-192.782" gradientUnits="userSpaceOnUse">
<stop stop-color="#F79122"/>
<stop offset="1" stop-color="#DD2F27"/>
</linearGradient>
<linearGradient id="paint1_linear_46_518" x1="299.438" y1="161.188" x2="427.779" y2="274.299" gradientUnits="userSpaceOnUse">
<stop stop-color="#FEC51D"/>
<stop offset="1" stop-color="#F79122"/>
</linearGradient>
<linearGradient id="paint2_linear_46_518" x1="326.991" y1="44.3469" x2="164.604" y2="474.562" gradientUnits="userSpaceOnUse">
<stop offset="0.07" stop-color="#F79122"/>
<stop offset="0.42" stop-color="#DD2F27"/>
</linearGradient>
</defs>
</svg>
