<svg width="1347" height="959" viewBox="0 0 1347 959" fill="none" xmlns="http://www.w3.org/2000/svg">
<g clip-path="url(#clip0_46_564)">
<line x1="917.93" y1="2.17718e-08" x2="917.93" y2="959" stroke="#252525"/>
<line x1="-67" y1="234.855" x2="1347" y2="234.855" stroke="#252525"/>
<line x1="412.554" y1="2.17718e-08" x2="412.554" y2="959" stroke="#252525"/>
<line x1="496.784" y1="2.17718e-08" x2="496.784" y2="959" stroke="#252525"/>
<line x1="581.013" y1="2.17718e-08" x2="581.013" y2="959" stroke="#252525"/>
<line x1="665.242" y1="2.17718e-08" x2="665.242" y2="959" stroke="#252525"/>
<line x1="749.472" y1="2.17718e-08" x2="749.472" y2="959" stroke="#252525"/>
<line x1="833.701" y1="2.17718e-08" x2="833.701" y2="959" stroke="#252525"/>
<line x1="75.637" y1="2.17718e-08" x2="75.6369" y2="959" stroke="#252525"/>
<line x1="159.866" y1="2.17718e-08" x2="159.866" y2="959" stroke="#252525"/>
<line x1="244.096" y1="2.17718e-08" x2="244.096" y2="959" stroke="#252525"/>
<line x1="328.325" y1="2.17718e-08" x2="328.325" y2="959" stroke="#252525"/>
<line x1="1002.16" y1="2.17718e-08" x2="1002.16" y2="959" stroke="#252525"/>
<line x1="1086.39" y1="2.17718e-08" x2="1086.39" y2="959" stroke="#252525"/>
<line x1="1170.62" y1="2.17718e-08" x2="1170.62" y2="959" stroke="#252525"/>
<line x1="1254.85" y1="2.17718e-08" x2="1254.85" y2="959" stroke="#252525"/>
<line x1="-67" y1="312.982" x2="1347" y2="312.982" stroke="#252525"/>
<line x1="-67" y1="391.108" x2="1347" y2="391.108" stroke="#252525"/>
<line x1="-67" y1="469.234" x2="1347" y2="469.234" stroke="#252525"/>
<line x1="-67" y1="547.36" x2="1347" y2="547.36" stroke="#252525"/>
<line x1="-67" y1="625.487" x2="1347" y2="625.487" stroke="#252525"/>
<line x1="-67" y1="703.613" x2="1347" y2="703.613" stroke="#252525"/>
<line x1="-67" y1="781.739" x2="1347" y2="781.739" stroke="#252525"/>
<line x1="-67" y1="859.866" x2="1347" y2="859.866" stroke="#252525"/>
<line x1="-67" y1="937.992" x2="1347" y2="937.992" stroke="#252525"/>
<line x1="-67" y1="78.6029" x2="1347" y2="78.6029" stroke="#252525"/>
<line x1="-67" y1="156.729" x2="1347" y2="156.729" stroke="#252525"/>
</g>
<defs>
<clipPath id="clip0_46_564">
<rect width="1346.67" height="959" fill="white"/>
</clipPath>
</defs>
</svg>
