<svg width="1395" height="912" viewBox="0 0 1395 912" fill="none" xmlns="http://www.w3.org/2000/svg">
<g opacity="0.3">
<line x1="58.4077" y1="-6" x2="58.4077" y2="912" stroke="#252525"/>
<line y1="69.2209" x2="1414" y2="69.2209" stroke="#252525"/>
<line y1="144.007" x2="1414" y2="144.007" stroke="#252525"/>
<line y1="218.793" x2="1414" y2="218.793" stroke="#252525"/>
<line y1="293.579" x2="1414" y2="293.579" stroke="#252525"/>
<line y1="368.365" x2="1414" y2="368.365" stroke="#252525"/>
<line y1="443.152" x2="1414" y2="443.152" stroke="#252525"/>
<line y1="517.938" x2="1414" y2="517.938" stroke="#252525"/>
<line y1="592.724" x2="1414" y2="592.724" stroke="#252525"/>
<line y1="667.51" x2="1414" y2="667.51" stroke="#252525"/>
<line y1="742.296" x2="1414" y2="742.296" stroke="#252525"/>
<line y1="817.083" x2="1414" y2="817.083" stroke="#252525"/>
<line y1="891.868" x2="1414" y2="891.868" stroke="#252525"/>
<line x1="136.637" y1="-6" x2="136.637" y2="912" stroke="#252525"/>
<line x1="214.866" y1="-6" x2="214.866" y2="912" stroke="#252525"/>
<line x1="299.096" y1="-6" x2="299.096" y2="912" stroke="#252525"/>
<line x1="377.325" y1="-6" x2="377.325" y2="912" stroke="#252525"/>
<line x1="455.554" y1="-6" x2="455.554" y2="912" stroke="#252525"/>
<line x1="539.784" y1="-6" x2="539.784" y2="912" stroke="#252525"/>
<line x1="618.013" y1="-6" x2="618.013" y2="912" stroke="#252525"/>
<line x1="696.242" y1="-6" x2="696.242" y2="912" stroke="#252525"/>
<line x1="780.472" y1="-6" x2="780.472" y2="912" stroke="#252525"/>
<line x1="858.701" y1="-6" x2="858.701" y2="912" stroke="#252525"/>
<line x1="936.93" y1="-6" x2="936.93" y2="912" stroke="#252525"/>
<line x1="1021.16" y1="-6" x2="1021.16" y2="912" stroke="#252525"/>
<line x1="1099.39" y1="-6" x2="1099.39" y2="912" stroke="#252525"/>
<line x1="1177.62" y1="-6" x2="1177.62" y2="912" stroke="#252525"/>
<line x1="1261.85" y1="-6" x2="1261.85" y2="912" stroke="#252525"/>
</g>
</svg>
