<svg width="30" height="30" viewBox="0 0 30 30" fill="none" xmlns="http://www.w3.org/2000/svg">
<path d="M12.3882 14.8899C12.3882 13.4004 13.5957 12.1929 15.0852 12.1929C16.5747 12.1929 17.7823 13.4004 17.7823 14.8899C17.7823 16.3794 16.5747 17.5869 15.0852 17.5869C13.5957 17.5869 12.3882 16.3794 12.3882 14.8899Z" fill="#686765"/>
<path fill-rule="evenodd" clip-rule="evenodd" d="M3.09839 14.8898C3.09839 16.8549 3.60778 17.5167 4.62658 18.8403C6.66083 21.483 10.0725 24.4792 15.0852 24.4792C20.098 24.4792 23.5096 21.483 25.5438 18.8403C26.5626 17.5167 27.0721 16.8549 27.0721 14.8898C27.0721 12.9246 26.5626 12.2629 25.5438 10.9393C23.5096 8.29647 20.098 5.30029 15.0852 5.30029C10.0725 5.30029 6.66083 8.29647 4.62658 10.9393C3.60778 12.2629 3.09839 12.9246 3.09839 14.8898ZM15.0852 10.3947C12.6027 10.3947 10.5902 12.4072 10.5902 14.8898C10.5902 17.3724 12.6027 19.3848 15.0852 19.3848C17.5678 19.3848 19.5803 17.3724 19.5803 14.8898C19.5803 12.4072 17.5678 10.3947 15.0852 10.3947Z" fill="#686765"/>
</svg>
