<svg width="63" height="64" viewBox="0 0 63 64" fill="none" xmlns="http://www.w3.org/2000/svg">
<path d="M31.5 0C14.1016 0 0 14.3287 0 32.0013C0 49.6739 14.1028 64 31.5 64C48.8972 64 63 49.6739 63 32.0013C63 14.3287 48.8984 0 31.5 0ZM31.795 59.9937C16.5755 60.1584 4.10589 47.7588 3.94383 32.2984C3.78177 16.8405 15.9855 4.17347 31.205 4.00884C46.4245 3.84165 58.8941 16.2411 59.0562 31.7016C59.2182 47.1621 47.0145 59.8265 31.795 59.9937Z" fill="#F79122"/>
<path d="M24 25.3131C28.2208 18.5968 35.4742 14 43.9838 14C46.4611 14 48.8504 14.3782 51.0974 15.0805C54.0241 18.4002 56.1037 22.4864 57 27H41.2937C39.5049 23.6526 35.9815 21.3744 31.9243 21.3744C28.6551 21.3744 25.9487 22.9856 24 25.3118V25.3131Z" fill="#F79122"/>
<path d="M56.9532 35.7143C56.9815 35.7143 57.0034 35.7399 56.9996 35.7668C55.1658 48.3402 44.2854 58 31.1349 58C30.642 58 30.1543 57.9846 29.6692 57.9578C16.2176 57.2191 5.47872 46.3585 5.01544 32.9083C4.51228 18.2816 16.3681 6.0295 31.0808 6.00006C38.4803 5.9847 45.1656 9.03139 49.9308 13.9343C49.963 13.9676 49.9308 14.0226 49.8871 14.0111C45.854 13.0087 30.9586 10.5099 22.4022 25.4631C22.2028 25.8113 21.993 26.1531 21.7871 26.4974C21.1913 27.4972 20.7525 28.5981 20.5054 29.7707C20.3536 30.4927 20.2725 31.2377 20.2725 32.0007C20.2725 37.9686 25.1355 42.8049 31.1349 42.8049C35.8114 42.8049 39.7968 39.8658 41.3256 35.7425C41.332 35.7246 41.3487 35.713 41.368 35.713H56.9519L56.9532 35.7143Z" fill="#F79122"/>
</svg>
