<svg width="67" height="64" viewBox="0 0 67 64" fill="none" xmlns="http://www.w3.org/2000/svg">
<path d="M33.2051 0C51.5438 0 66.4109 14.8664 66.4111 33.2051C66.4111 42.378 62.6917 50.6828 56.6787 56.6924H9.73242C3.71932 50.6828 0 42.378 0 33.2051C0.00019226 14.8665 14.8665 0.000192272 33.2051 0Z" fill="#BEBCB6"/>
<path d="M31.9655 51.4553V14.435H34.3371V51.4553H31.9655ZM39.384 25.9171C39.2297 24.5481 38.5935 23.4876 37.4751 22.7357C36.3568 21.974 34.9493 21.5932 33.2525 21.5932C32.0378 21.5932 30.987 21.7861 30.1 22.1717C29.2131 22.5477 28.5238 23.0683 28.0321 23.7335C27.5501 24.389 27.309 25.1362 27.309 25.9749C27.309 26.6787 27.4729 27.2861 27.8007 27.797C28.1381 28.308 28.5768 28.737 29.1167 29.0841C29.6662 29.4215 30.2543 29.7059 30.8809 29.9373C31.5076 30.159 32.1101 30.3422 32.6885 30.4868L35.5807 31.2387C36.5255 31.4701 37.4944 31.7834 38.4874 32.1787C39.4804 32.574 40.4011 33.0946 41.2495 33.7405C42.0978 34.3864 42.7823 35.1866 43.3029 36.141C43.8332 37.0955 44.0983 38.2379 44.0983 39.5683C44.0983 41.2458 43.6645 42.7353 42.7968 44.0368C41.9388 45.3382 40.6903 46.365 39.0514 47.1169C37.4221 47.8689 35.4506 48.2449 33.1368 48.2449C30.9195 48.2449 29.001 47.893 27.3813 47.1893C25.7617 46.4855 24.494 45.4877 23.5781 44.1958C22.6622 42.8943 22.1561 41.3518 22.0597 39.5683H26.5426C26.6294 40.6384 26.9764 41.5302 27.5838 42.2436C28.2008 42.9474 28.9865 43.4728 29.9409 43.8198C30.905 44.1573 31.9607 44.326 33.1079 44.326C34.3708 44.326 35.494 44.1283 36.4773 43.7331C37.4703 43.3282 38.2512 42.769 38.82 42.0556C39.3888 41.3325 39.6732 40.489 39.6732 39.5249C39.6732 38.6476 39.4226 37.9294 38.9212 37.3702C38.4296 36.8111 37.7595 36.3483 36.9112 35.982C36.0724 35.6156 35.1228 35.2927 34.0623 35.0131L30.5628 34.0586C28.1912 33.4127 26.3112 32.4631 24.923 31.2098C23.5443 29.9565 22.855 28.2983 22.855 26.2352C22.855 24.5288 23.3178 23.0393 24.2433 21.7668C25.1688 20.4942 26.4221 19.506 28.0032 18.8023C29.5842 18.0889 31.3678 17.7321 33.3537 17.7321C35.359 17.7321 37.1281 18.084 38.6609 18.7878C40.2034 19.4916 41.4182 20.4605 42.3051 21.6945C43.1921 22.9188 43.6548 24.3264 43.6934 25.9171H39.384Z" fill="#1A1A1A"/>
<line x1="2.96956" y1="62.3614" x2="59.6618" y2="62.3614" stroke="#BEBCB6" stroke-width="1.61978" stroke-linecap="round"/>
</svg>
