<svg width="37" height="35" viewBox="0 0 37 35" fill="none" xmlns="http://www.w3.org/2000/svg">
<path d="M34.8672 33.0689C35.1608 33.0689 35.4384 32.9367 35.6233 32.7086C35.8081 32.4805 35.8802 32.1814 35.8195 31.8943L35.2066 28.9937C35.5557 28.656 35.7751 28.1845 35.7751 27.6603C35.7751 27.1084 35.5293 26.619 35.1478 26.2789V16.206L32.6908 17.7265V26.2789C32.3093 26.619 32.0634 27.1084 32.0634 27.6603C32.0634 28.1846 32.2829 28.6561 32.632 28.9937L32.019 31.8943C31.9583 32.1815 32.0305 32.4806 32.2152 32.7086C32.4001 32.9366 32.6778 33.0689 32.9713 33.0689H34.8672ZM35.7001 10.328L19.7155 0.433116C19.2474 0.144756 18.7197 0 18.1919 0C17.6642 0 17.1361 0.144635 16.6708 0.433116L0.68606 10.328C0.259233 10.5921 0 11.0586 0 11.5606C0 12.0628 0.259233 12.5294 0.68606 12.7939L16.6707 22.6889C17.136 22.9776 17.6641 23.122 18.1919 23.122C18.7196 23.122 19.2474 22.9774 19.7154 22.6889L35.7001 12.7939C36.1269 12.5295 36.3861 12.0628 36.3861 11.5606C36.3861 11.0586 36.1269 10.592 35.7001 10.328ZM18.1919 25.5789C17.1962 25.5789 16.2244 25.3024 15.3773 24.7781L6.05332 19.0058V28.9452C6.05332 31.8868 11.4905 34.2681 18.1919 34.2681C24.8956 34.2681 30.3323 31.8868 30.3323 28.9452V19.0058L21.0088 24.7781C20.1617 25.3024 19.1876 25.5789 18.1919 25.5789Z" fill="#686765"/>
</svg>
