<svg width="397" height="396" viewBox="0 0 397 396" fill="none" xmlns="http://www.w3.org/2000/svg">
<path fill-rule="evenodd" clip-rule="evenodd" d="M351.726 161.254C350.667 161.189 349.513 161.19 348.316 161.19H348.018H301.101C262.429 161.19 229.34 190.556 229.34 228.85C229.34 267.144 262.429 296.51 301.101 296.51H348.018H348.316C349.513 296.51 350.667 296.51 351.726 296.446C367.434 295.49 381.327 283.631 382.495 267.068C382.572 265.982 382.57 264.811 382.57 263.727V263.431V194.269V193.973C382.57 192.889 382.572 191.718 382.495 190.632C381.327 174.069 367.434 162.21 351.726 161.254ZM296.942 246.893C306.898 246.893 314.968 238.815 314.968 228.85C314.968 218.886 306.898 210.807 296.942 210.807C286.985 210.807 278.915 218.886 278.915 228.85C278.915 238.815 286.985 246.893 296.942 246.893Z" fill="url(#paint0_linear_40_638)"/>
<path d="M350.128 162.127C350.128 142.647 349.42 121.75 336.967 106.769C335.764 105.323 334.486 103.919 333.123 102.556C320.774 90.2079 305.115 84.7278 285.77 82.127C266.972 79.5996 242.954 79.6 212.63 79.6001H177.768C147.444 79.6 123.425 79.5996 104.628 82.127C85.2824 84.7278 69.6243 90.2079 57.2759 102.556C44.9276 114.905 39.4475 130.563 36.8467 149.908C34.3193 168.706 34.3197 192.724 34.3198 223.048V224.909C34.3197 255.234 34.3193 279.252 36.8467 298.049C39.4475 317.394 44.9276 333.053 57.2759 345.402C69.6243 357.749 85.2824 363.229 104.628 365.831C123.425 368.357 147.443 368.357 177.766 368.357H212.63C242.954 368.357 266.972 368.357 285.77 365.831C305.115 363.229 320.774 357.749 333.123 345.402C336.497 342.026 339.363 338.399 341.798 334.508C349.232 322.636 350.128 308.086 350.128 294.081C349.333 294.106 348.494 294.106 347.633 294.106H301.872C264.393 294.106 232.325 265.459 232.325 228.104C232.325 190.749 264.393 162.102 301.872 162.102H347.631C348.493 162.102 349.333 162.102 350.128 162.127Z" fill="url(#paint1_linear_40_638)"/>
<path d="M81.2036 158.64C81.2036 152.001 86.544 146.618 93.1316 146.618H156.748C163.335 146.618 168.676 152.001 168.676 158.64C168.676 165.28 163.335 170.662 156.748 170.662H93.1316C86.544 170.662 81.2036 165.28 81.2036 158.64Z" fill="#DD2F27"/>
<path d="M167.165 34.4808L132.491 57.9183L103.891 77.0562C122.675 74.5415 146.663 74.5418 176.937 74.542H211.799C242.123 74.5417 266.141 74.5415 284.939 77.0689C288.721 77.5771 292.361 78.1955 295.862 78.9537L264.495 58.0416L229.637 34.4808C211.015 21.8941 185.788 21.8941 167.165 34.4808Z" fill="#FEC51D"/>
<defs>
<linearGradient id="paint0_linear_40_638" x1="-93.0401" y1="296.51" x2="421.376" y2="255.73" gradientUnits="userSpaceOnUse">
<stop stop-color="#F79122"/>
<stop offset="1" stop-color="#DD2F27"/>
</linearGradient>
<linearGradient id="paint1_linear_40_638" x1="192.359" y1="78.688" x2="143.77" y2="682.57" gradientUnits="userSpaceOnUse">
<stop stop-color="#F79122"/>
<stop offset="1" stop-color="#DD2F27"/>
</linearGradient>
</defs>
</svg>
