<svg width="44" height="45" viewBox="0 0 44 45" fill="none" xmlns="http://www.w3.org/2000/svg">
<g clip-path="url(#clip0_114_16)">
<path d="M30.3119 26.6923H30.3283M34.8559 8.23926H11.5833C9.54675 8.23926 8.52847 8.23926 7.75062 8.63558C7.06638 8.98422 6.5101 9.54051 6.16148 10.2247C5.76514 11.0026 5.76514 12.0209 5.76514 14.0574V31.5119C5.76514 33.5484 5.76514 34.5666 6.16148 35.3446C6.5101 36.0288 7.06638 36.585 7.75062 36.9337C8.52847 37.3301 9.54674 37.3301 11.5833 37.3301H32.6741C34.7106 37.3301 35.729 37.3301 36.5068 36.9337C37.191 36.585 37.7473 36.0288 38.0959 35.3446C38.4922 34.5666 38.4922 33.5484 38.4922 31.5119V21.3301C38.4922 19.2936 38.4922 18.2753 38.0959 17.4974C37.7473 16.8132 37.191 16.2569 36.5068 15.9083C35.729 15.5119 34.7106 15.5119 32.6741 15.5119H13.0378M31.1301 26.6923C31.1301 27.1441 30.7637 27.5105 30.3119 27.5105C29.8601 27.5105 29.4937 27.1441 29.4937 26.6923C29.4937 26.2405 29.8601 25.8741 30.3119 25.8741C30.7637 25.8741 31.1301 26.2405 31.1301 26.6923Z" stroke="#1A1A1A" stroke-width="3.63634" stroke-linecap="round" stroke-linejoin="round"/>
</g>
<defs>
<clipPath id="clip0_114_16">
<rect width="43.6361" height="43.6361" fill="white" transform="translate(0.310059 0.964767)"/>
</clipPath>
</defs>
</svg>
